<mxfile host="app.diagrams.net" modified="2023-03-07T10:57:11.216Z" agent="5.0 (Windows NT 10.0; Win64; x64) AppleWebKit/537.36 (KHTML, like Gecko) Chrome/109.0.0.0 Safari/537.36" etag="nwwGKuLHQAI46LYejwS_" version="21.0.2" type="github">
  <diagram id="C5RBs43oDa-KdzZeNtuy" name="Page-1">
    <mxGraphModel dx="1687" dy="936" grid="1" gridSize="10" guides="1" tooltips="1" connect="1" arrows="1" fold="1" page="1" pageScale="1" pageWidth="827" pageHeight="1169" math="0" shadow="0">
      <root>
        <mxCell id="WIyWlLk6GJQsqaUBKTNV-0" />
        <mxCell id="WIyWlLk6GJQsqaUBKTNV-1" parent="WIyWlLk6GJQsqaUBKTNV-0" />
        <mxCell id="S3-cY5jVqJooBW_uOUNI-1" value="" style="edgeStyle=orthogonalEdgeStyle;rounded=0;orthogonalLoop=1;jettySize=auto;html=1;" edge="1" parent="WIyWlLk6GJQsqaUBKTNV-1" source="WIyWlLk6GJQsqaUBKTNV-3" target="S3-cY5jVqJooBW_uOUNI-0">
          <mxGeometry relative="1" as="geometry" />
        </mxCell>
        <mxCell id="WIyWlLk6GJQsqaUBKTNV-3" value="Начало" style="rounded=1;whiteSpace=wrap;html=1;fontSize=12;glass=0;strokeWidth=1;shadow=0;" parent="WIyWlLk6GJQsqaUBKTNV-1" vertex="1">
          <mxGeometry x="160" y="80" width="120" height="40" as="geometry" />
        </mxCell>
        <mxCell id="S3-cY5jVqJooBW_uOUNI-3" value="" style="edgeStyle=orthogonalEdgeStyle;rounded=0;orthogonalLoop=1;jettySize=auto;html=1;" edge="1" parent="WIyWlLk6GJQsqaUBKTNV-1" source="S3-cY5jVqJooBW_uOUNI-0" target="S3-cY5jVqJooBW_uOUNI-2">
          <mxGeometry relative="1" as="geometry" />
        </mxCell>
        <mxCell id="S3-cY5jVqJooBW_uOUNI-0" value="Инициализируем&amp;nbsp; массив &lt;br&gt;случайными элементами" style="shape=parallelogram;perimeter=parallelogramPerimeter;whiteSpace=wrap;html=1;fixedSize=1;rounded=1;glass=0;strokeWidth=1;shadow=0;" vertex="1" parent="WIyWlLk6GJQsqaUBKTNV-1">
          <mxGeometry x="120" y="140" width="200" height="70" as="geometry" />
        </mxCell>
        <mxCell id="S3-cY5jVqJooBW_uOUNI-7" value="" style="edgeStyle=orthogonalEdgeStyle;rounded=0;orthogonalLoop=1;jettySize=auto;html=1;" edge="1" parent="WIyWlLk6GJQsqaUBKTNV-1" source="S3-cY5jVqJooBW_uOUNI-2" target="S3-cY5jVqJooBW_uOUNI-6">
          <mxGeometry relative="1" as="geometry" />
        </mxCell>
        <mxCell id="S3-cY5jVqJooBW_uOUNI-2" value="Выводим неотсортированный массив&amp;nbsp;" style="shape=parallelogram;perimeter=parallelogramPerimeter;whiteSpace=wrap;html=1;fixedSize=1;rounded=1;glass=0;strokeWidth=1;shadow=0;" vertex="1" parent="WIyWlLk6GJQsqaUBKTNV-1">
          <mxGeometry x="115" y="230" width="210" height="60" as="geometry" />
        </mxCell>
        <mxCell id="S3-cY5jVqJooBW_uOUNI-9" value="" style="edgeStyle=orthogonalEdgeStyle;rounded=0;orthogonalLoop=1;jettySize=auto;html=1;" edge="1" parent="WIyWlLk6GJQsqaUBKTNV-1" source="S3-cY5jVqJooBW_uOUNI-6" target="S3-cY5jVqJooBW_uOUNI-8">
          <mxGeometry relative="1" as="geometry" />
        </mxCell>
        <mxCell id="S3-cY5jVqJooBW_uOUNI-6" value="вызываем функцию&amp;nbsp;&lt;br&gt;insertion_sort()" style="shape=parallelogram;perimeter=parallelogramPerimeter;whiteSpace=wrap;html=1;fixedSize=1;rounded=1;glass=0;strokeWidth=1;shadow=0;" vertex="1" parent="WIyWlLk6GJQsqaUBKTNV-1">
          <mxGeometry x="135" y="310" width="170" height="60" as="geometry" />
        </mxCell>
        <mxCell id="S3-cY5jVqJooBW_uOUNI-11" value="" style="edgeStyle=orthogonalEdgeStyle;rounded=0;orthogonalLoop=1;jettySize=auto;html=1;" edge="1" parent="WIyWlLk6GJQsqaUBKTNV-1" source="S3-cY5jVqJooBW_uOUNI-8" target="S3-cY5jVqJooBW_uOUNI-10">
          <mxGeometry relative="1" as="geometry" />
        </mxCell>
        <mxCell id="S3-cY5jVqJooBW_uOUNI-8" value="Выводим отсортированный массив&amp;nbsp;" style="shape=parallelogram;perimeter=parallelogramPerimeter;whiteSpace=wrap;html=1;fixedSize=1;rounded=1;glass=0;strokeWidth=1;shadow=0;" vertex="1" parent="WIyWlLk6GJQsqaUBKTNV-1">
          <mxGeometry x="102.5" y="390" width="235" height="60" as="geometry" />
        </mxCell>
        <mxCell id="S3-cY5jVqJooBW_uOUNI-10" value="Конец&lt;br&gt;" style="rounded=1;whiteSpace=wrap;html=1;glass=0;strokeWidth=1;shadow=0;" vertex="1" parent="WIyWlLk6GJQsqaUBKTNV-1">
          <mxGeometry x="160" y="470" width="120" height="60" as="geometry" />
        </mxCell>
        <mxCell id="S3-cY5jVqJooBW_uOUNI-14" value="&lt;span style=&quot;font-family: ui-monospace, SFMono-Regular, &amp;quot;SF Mono&amp;quot;, Menlo, Consolas, &amp;quot;Liberation Mono&amp;quot;, monospace; font-size: 12px; font-style: normal; font-variant-ligatures: normal; font-variant-caps: normal; font-weight: 400; letter-spacing: normal; orphans: 2; text-align: start; text-indent: 0px; text-transform: none; widows: 2; word-spacing: 0px; -webkit-text-stroke-width: 0px; background-color: rgb(255, 255, 255); text-decoration-thickness: initial; text-decoration-style: initial; text-decoration-color: initial; float: none; display: inline !important;&quot;&gt;Функция insertion_sort&lt;/span&gt;" style="text;whiteSpace=wrap;html=1;" vertex="1" parent="WIyWlLk6GJQsqaUBKTNV-1">
          <mxGeometry x="388.15999999999997" y="40" width="160" height="40" as="geometry" />
        </mxCell>
        <mxCell id="S3-cY5jVqJooBW_uOUNI-18" value="" style="edgeStyle=orthogonalEdgeStyle;rounded=0;orthogonalLoop=1;jettySize=auto;html=1;" edge="1" parent="WIyWlLk6GJQsqaUBKTNV-1" target="S3-cY5jVqJooBW_uOUNI-17">
          <mxGeometry relative="1" as="geometry">
            <mxPoint x="465.03" y="310" as="sourcePoint" />
          </mxGeometry>
        </mxCell>
        <mxCell id="S3-cY5jVqJooBW_uOUNI-20" value="" style="edgeStyle=orthogonalEdgeStyle;rounded=0;orthogonalLoop=1;jettySize=auto;html=1;" edge="1" parent="WIyWlLk6GJQsqaUBKTNV-1" source="S3-cY5jVqJooBW_uOUNI-17" target="S3-cY5jVqJooBW_uOUNI-19">
          <mxGeometry relative="1" as="geometry" />
        </mxCell>
        <mxCell id="S3-cY5jVqJooBW_uOUNI-17" value="x = arr[i]" style="shape=parallelogram;perimeter=parallelogramPerimeter;whiteSpace=wrap;html=1;fixedSize=1;rounded=1;" vertex="1" parent="WIyWlLk6GJQsqaUBKTNV-1">
          <mxGeometry x="405.03" y="340" width="120" height="60" as="geometry" />
        </mxCell>
        <mxCell id="S3-cY5jVqJooBW_uOUNI-39" value="" style="edgeStyle=orthogonalEdgeStyle;rounded=0;orthogonalLoop=1;jettySize=auto;html=1;" edge="1" parent="WIyWlLk6GJQsqaUBKTNV-1" source="S3-cY5jVqJooBW_uOUNI-19" target="S3-cY5jVqJooBW_uOUNI-38">
          <mxGeometry relative="1" as="geometry" />
        </mxCell>
        <mxCell id="S3-cY5jVqJooBW_uOUNI-19" value="j = i - 1" style="shape=parallelogram;perimeter=parallelogramPerimeter;whiteSpace=wrap;html=1;fixedSize=1;rounded=1;" vertex="1" parent="WIyWlLk6GJQsqaUBKTNV-1">
          <mxGeometry x="405.03" y="420" width="120" height="60" as="geometry" />
        </mxCell>
        <mxCell id="S3-cY5jVqJooBW_uOUNI-37" value="" style="edgeStyle=orthogonalEdgeStyle;rounded=0;orthogonalLoop=1;jettySize=auto;html=1;" edge="1" parent="WIyWlLk6GJQsqaUBKTNV-1" source="S3-cY5jVqJooBW_uOUNI-21" target="S3-cY5jVqJooBW_uOUNI-36">
          <mxGeometry relative="1" as="geometry">
            <Array as="points">
              <mxPoint x="615" y="270" />
            </Array>
          </mxGeometry>
        </mxCell>
        <mxCell id="S3-cY5jVqJooBW_uOUNI-21" value="от i до size, шаг 1" style="rhombus;whiteSpace=wrap;html=1;" vertex="1" parent="WIyWlLk6GJQsqaUBKTNV-1">
          <mxGeometry x="375.03" y="230" width="180" height="80" as="geometry" />
        </mxCell>
        <mxCell id="S3-cY5jVqJooBW_uOUNI-34" value="" style="edgeStyle=orthogonalEdgeStyle;rounded=0;orthogonalLoop=1;jettySize=auto;html=1;" edge="1" parent="WIyWlLk6GJQsqaUBKTNV-1" source="S3-cY5jVqJooBW_uOUNI-31" target="S3-cY5jVqJooBW_uOUNI-33">
          <mxGeometry relative="1" as="geometry" />
        </mxCell>
        <mxCell id="S3-cY5jVqJooBW_uOUNI-31" value="Начало" style="rounded=1;whiteSpace=wrap;html=1;fontSize=12;glass=0;strokeWidth=1;shadow=0;" vertex="1" parent="WIyWlLk6GJQsqaUBKTNV-1">
          <mxGeometry x="405.03999999999996" y="90" width="120" height="40" as="geometry" />
        </mxCell>
        <mxCell id="S3-cY5jVqJooBW_uOUNI-35" value="" style="edgeStyle=orthogonalEdgeStyle;rounded=0;orthogonalLoop=1;jettySize=auto;html=1;" edge="1" parent="WIyWlLk6GJQsqaUBKTNV-1" source="S3-cY5jVqJooBW_uOUNI-33" target="S3-cY5jVqJooBW_uOUNI-21">
          <mxGeometry relative="1" as="geometry" />
        </mxCell>
        <mxCell id="S3-cY5jVqJooBW_uOUNI-33" value="&lt;div style=&quot;text-align: start;&quot;&gt;&lt;font face=&quot;ui-monospace, SFMono-Regular, SF Mono, Menlo, Consolas, Liberation Mono, monospace&quot; color=&quot;#24292f&quot;&gt;&lt;span style=&quot;background-color: rgb(255, 255, 255);&quot;&gt;&amp;nbsp; &amp;nbsp; Получаем массив arr и&amp;nbsp; &amp;nbsp; &amp;nbsp; &amp;nbsp; &amp;nbsp;его размер size&lt;/span&gt;&lt;/font&gt;&lt;/div&gt;" style="shape=parallelogram;perimeter=parallelogramPerimeter;whiteSpace=wrap;html=1;fixedSize=1;rounded=1;" vertex="1" parent="WIyWlLk6GJQsqaUBKTNV-1">
          <mxGeometry x="372.53" y="150" width="184.99" height="60" as="geometry" />
        </mxCell>
        <mxCell id="S3-cY5jVqJooBW_uOUNI-36" value="Конец" style="rounded=1;whiteSpace=wrap;html=1;" vertex="1" parent="WIyWlLk6GJQsqaUBKTNV-1">
          <mxGeometry x="548.16" y="350" width="120" height="60" as="geometry" />
        </mxCell>
        <mxCell id="S3-cY5jVqJooBW_uOUNI-38" value="А" style="ellipse;whiteSpace=wrap;html=1;rounded=1;" vertex="1" parent="WIyWlLk6GJQsqaUBKTNV-1">
          <mxGeometry x="425.03" y="505" width="80" height="80" as="geometry" />
        </mxCell>
        <mxCell id="S3-cY5jVqJooBW_uOUNI-40" value="" style="edgeStyle=orthogonalEdgeStyle;rounded=0;orthogonalLoop=1;jettySize=auto;html=1;" edge="1" parent="WIyWlLk6GJQsqaUBKTNV-1" target="S3-cY5jVqJooBW_uOUNI-43">
          <mxGeometry relative="1" as="geometry">
            <mxPoint x="799.8800000000001" y="225" as="sourcePoint" />
          </mxGeometry>
        </mxCell>
        <mxCell id="S3-cY5jVqJooBW_uOUNI-41" value="" style="edgeStyle=orthogonalEdgeStyle;rounded=0;orthogonalLoop=1;jettySize=auto;html=1;" edge="1" parent="WIyWlLk6GJQsqaUBKTNV-1" source="S3-cY5jVqJooBW_uOUNI-43" target="S3-cY5jVqJooBW_uOUNI-45">
          <mxGeometry relative="1" as="geometry" />
        </mxCell>
        <mxCell id="S3-cY5jVqJooBW_uOUNI-42" value="" style="edgeStyle=orthogonalEdgeStyle;rounded=0;orthogonalLoop=1;jettySize=auto;html=1;" edge="1" parent="WIyWlLk6GJQsqaUBKTNV-1" source="S3-cY5jVqJooBW_uOUNI-43" target="S3-cY5jVqJooBW_uOUNI-48">
          <mxGeometry relative="1" as="geometry" />
        </mxCell>
        <mxCell id="S3-cY5jVqJooBW_uOUNI-43" value="j&amp;gt;=0 and arr[j]&amp;gt;x" style="rhombus;whiteSpace=wrap;html=1;rounded=1;" vertex="1" parent="WIyWlLk6GJQsqaUBKTNV-1">
          <mxGeometry x="723.04" y="245" width="153.75" height="100" as="geometry" />
        </mxCell>
        <mxCell id="S3-cY5jVqJooBW_uOUNI-44" value="" style="edgeStyle=orthogonalEdgeStyle;rounded=0;orthogonalLoop=1;jettySize=auto;html=1;" edge="1" parent="WIyWlLk6GJQsqaUBKTNV-1" source="S3-cY5jVqJooBW_uOUNI-45" target="S3-cY5jVqJooBW_uOUNI-47">
          <mxGeometry relative="1" as="geometry" />
        </mxCell>
        <mxCell id="S3-cY5jVqJooBW_uOUNI-45" value="&lt;span style=&quot;color: rgb(36, 41, 47); font-family: ui-monospace, SFMono-Regular, &amp;quot;SF Mono&amp;quot;, Menlo, Consolas, &amp;quot;Liberation Mono&amp;quot;, monospace; font-size: 12px; font-style: normal; font-variant-ligatures: normal; font-variant-caps: normal; font-weight: 400; letter-spacing: normal; orphans: 2; text-align: start; text-indent: 0px; text-transform: none; widows: 2; word-spacing: 0px; -webkit-text-stroke-width: 0px; background-color: rgb(255, 255, 255); text-decoration-thickness: initial; text-decoration-style: initial; text-decoration-color: initial; float: none; display: inline !important;&quot;&gt;arr[j+&lt;/span&gt;&lt;span style=&quot;box-sizing: border-box; color: var(--color-prettylights-syntax-constant); font-family: ui-monospace, SFMono-Regular, &amp;quot;SF Mono&amp;quot;, Menlo, Consolas, &amp;quot;Liberation Mono&amp;quot;, monospace; font-size: 12px; font-style: normal; font-variant-ligatures: normal; font-variant-caps: normal; font-weight: 400; letter-spacing: normal; orphans: 2; text-align: start; text-indent: 0px; text-transform: none; widows: 2; word-spacing: 0px; -webkit-text-stroke-width: 0px; background-color: rgb(255, 255, 255); text-decoration-thickness: initial; text-decoration-style: initial; text-decoration-color: initial;&quot; class=&quot;pl-c1&quot;&gt;1&lt;/span&gt;&lt;span style=&quot;color: rgb(36, 41, 47); font-family: ui-monospace, SFMono-Regular, &amp;quot;SF Mono&amp;quot;, Menlo, Consolas, &amp;quot;Liberation Mono&amp;quot;, monospace; font-size: 12px; font-style: normal; font-variant-ligatures: normal; font-variant-caps: normal; font-weight: 400; letter-spacing: normal; orphans: 2; text-align: start; text-indent: 0px; text-transform: none; widows: 2; word-spacing: 0px; -webkit-text-stroke-width: 0px; background-color: rgb(255, 255, 255); text-decoration-thickness: initial; text-decoration-style: initial; text-decoration-color: initial; float: none; display: inline !important;&quot;&gt;]=arr[j]&lt;/span&gt;" style="shape=parallelogram;perimeter=parallelogramPerimeter;whiteSpace=wrap;html=1;fixedSize=1;rounded=1;" vertex="1" parent="WIyWlLk6GJQsqaUBKTNV-1">
          <mxGeometry x="729.9200000000001" y="365" width="140" height="60" as="geometry" />
        </mxCell>
        <mxCell id="S3-cY5jVqJooBW_uOUNI-46" style="edgeStyle=orthogonalEdgeStyle;rounded=0;orthogonalLoop=1;jettySize=auto;html=1;entryX=0;entryY=0.5;entryDx=0;entryDy=0;" edge="1" parent="WIyWlLk6GJQsqaUBKTNV-1" source="S3-cY5jVqJooBW_uOUNI-47" target="S3-cY5jVqJooBW_uOUNI-43">
          <mxGeometry relative="1" as="geometry">
            <Array as="points">
              <mxPoint x="699.94" y="475" />
              <mxPoint x="699.94" y="295" />
            </Array>
          </mxGeometry>
        </mxCell>
        <mxCell id="S3-cY5jVqJooBW_uOUNI-47" value="j--" style="shape=parallelogram;perimeter=parallelogramPerimeter;whiteSpace=wrap;html=1;fixedSize=1;rounded=1;" vertex="1" parent="WIyWlLk6GJQsqaUBKTNV-1">
          <mxGeometry x="739.9200000000001" y="445" width="120" height="60" as="geometry" />
        </mxCell>
        <mxCell id="S3-cY5jVqJooBW_uOUNI-48" value="&lt;span style=&quot;color: rgb(36, 41, 47); font-family: ui-monospace, SFMono-Regular, &amp;quot;SF Mono&amp;quot;, Menlo, Consolas, &amp;quot;Liberation Mono&amp;quot;, monospace; font-size: 12px; font-style: normal; font-variant-ligatures: normal; font-variant-caps: normal; font-weight: 400; letter-spacing: normal; orphans: 2; text-align: start; text-indent: 0px; text-transform: none; widows: 2; word-spacing: 0px; -webkit-text-stroke-width: 0px; background-color: rgb(255, 255, 255); text-decoration-thickness: initial; text-decoration-style: initial; text-decoration-color: initial; float: none; display: inline !important;&quot;&gt;arr[j+&lt;/span&gt;&lt;span style=&quot;box-sizing: border-box; color: var(--color-prettylights-syntax-constant); font-family: ui-monospace, SFMono-Regular, &amp;quot;SF Mono&amp;quot;, Menlo, Consolas, &amp;quot;Liberation Mono&amp;quot;, monospace; font-size: 12px; font-style: normal; font-variant-ligatures: normal; font-variant-caps: normal; font-weight: 400; letter-spacing: normal; orphans: 2; text-align: start; text-indent: 0px; text-transform: none; widows: 2; word-spacing: 0px; -webkit-text-stroke-width: 0px; background-color: rgb(255, 255, 255); text-decoration-thickness: initial; text-decoration-style: initial; text-decoration-color: initial;&quot; class=&quot;pl-c1&quot;&gt;1&lt;/span&gt;&lt;span style=&quot;color: rgb(36, 41, 47); font-family: ui-monospace, SFMono-Regular, &amp;quot;SF Mono&amp;quot;, Menlo, Consolas, &amp;quot;Liberation Mono&amp;quot;, monospace; font-size: 12px; font-style: normal; font-variant-ligatures: normal; font-variant-caps: normal; font-weight: 400; letter-spacing: normal; orphans: 2; text-align: start; text-indent: 0px; text-transform: none; widows: 2; word-spacing: 0px; -webkit-text-stroke-width: 0px; background-color: rgb(255, 255, 255); text-decoration-thickness: initial; text-decoration-style: initial; text-decoration-color: initial; float: none; display: inline !important;&quot;&gt;]=x&lt;/span&gt;" style="shape=parallelogram;perimeter=parallelogramPerimeter;whiteSpace=wrap;html=1;fixedSize=1;rounded=1;" vertex="1" parent="WIyWlLk6GJQsqaUBKTNV-1">
          <mxGeometry x="899.9100000000001" y="265" width="140" height="60" as="geometry" />
        </mxCell>
        <mxCell id="S3-cY5jVqJooBW_uOUNI-49" value="А" style="ellipse;whiteSpace=wrap;html=1;rounded=1;" vertex="1" parent="WIyWlLk6GJQsqaUBKTNV-1">
          <mxGeometry x="759.9200000000001" y="145" width="80" height="80" as="geometry" />
        </mxCell>
      </root>
    </mxGraphModel>
  </diagram>
</mxfile>
